<svg xmlns="http://www.w3.org/2000/svg" viewBox="0 0 1000 416" width="100" height="32">
  <path fill="#000000" d="M923.81,0H76.19C34.11,0,0,34.11,0,76.19v263.62C0,381.89,34.11,416,76.19,416h847.62c42.08,0,76.19-34.11,76.19-76.19V76.19C1000,34.11,965.89,0,923.81,0z"/>
  <path fill="#FFFFFF" d="M236.48,142.7c10.11-12.24,16.95-29.19,15.09-46.14c-14.59,0.59-32.25,9.7-42.65,21.94c-9.35,10.82-17.54,28.06-15.38,44.57C210.14,164.35,226.37,154.94,236.48,142.7z M236.48,166.35c-16.36-0.97-30.39,9.29-38.17,9.29c-7.78,0-19.75-8.9-32.54-8.64c-16.77,0.26-32.25,9.76-40.82,24.77c-17.42,30.16-4.48,74.73,12.53,99.24c8.31,12.01,18.17,25.49,31.16,25.03c12.53-0.52,17.24-8.08,32.33-8.08c15.09,0,19.34,8.08,32.54,7.82c13.45-0.26,21.97-12.24,30.24-24.25c9.52-13.89,13.45-27.36,13.71-28.06c-0.26-0.26-26.47-10.17-26.73-40.33c-0.26-25.23,20.59-37.24,21.52-37.76C260.6,168.21,240.41,166.61,236.48,166.35z M352.13,124.53h-35.3l-0.26,104.31h35.56V124.53z M352.13,291.43h-35.3l-0.26,104.31h35.56V291.43z M405.09,166.35h-30.85v-41.82h-35.56v41.82h-21.52v29.45h21.52v68.04c-0.26,23.02,15.64,42.45,40.56,42.45c10.7,0,18.48-2.59,22.93-5.18l-5.4-29.45c-2.7,1.29-7.78,2.59-13.45,2.59c-9.52,0-14.59-5.95-14.59-18.19v-60.26h30.85V166.35z M502.63,228.7c0-38.53-37.16-63.12-63.89-63.12c-35.82,0-66.41,27.36-66.41,72.82c0,43.42,29.67,72.05,70.23,72.05c20.85,0,37.42-5.18,49.69-14.86l-12.79-24.25c-9.26,6.21-21.26,10.17-34.12,10.17c-17.77,0-33.67-8.64-35.56-30.68h91.75C502.37,243.56,502.63,235.43,502.63,228.7z M410.49,219.8c1.35-17.93,13.45-31.65,28.3-31.65c14.59,0,26.21,13.18,26.47,31.65H410.49z M599.91,166.35c-17.77,0-29.67,11.23-36.74,22.7h-0.52l-1.35-19.93h-31.9c0.52,11.23,0.78,24.25,0.78,39.11v124.24h35.56v-65.45h0.26c5.92,9.7,17.24,16.15,30.85,16.15c27.82,0,53.77-22.7,53.77-61.3C650.63,188.53,627.7,166.35,599.91,166.35z M592.39,249.77c-14.85,0-27.38-12.77-27.38-31.65c0-17.67,10.7-31.39,27.64-31.39c17.24,0,27.12,14.6,27.12,31.39C619.77,237.52,607.5,249.77,592.39,249.77z M739.73,166.35c-35.82,0-63.89,26.33-63.89,72.31c0,42.97,25.95,72.57,61.77,72.57c18.48,0,31.93-4.15,39.97-8.9l-6.7-27.62c-7.26,3.62-16.77,6.47-29.93,6.47c-16.77,0-31.62-10.43-32.14-31.39h75.24c0.26-3.88,0.78-7.82,0.78-13.89C784.83,194.48,768.32,166.35,739.73,166.35z M713.26,219.8c1.09-13.18,10.44-31.65,25.69-31.65c18.74,0,23.22,16.67,23.22,31.65H713.26z M876.8,195.8l-24.34,61.82h-0.52l-23.82-61.82h-38.17l35.82,81.75l-1.61,4.15c-4.31,12.24-11.57,17.41-21.52,17.41c-3.35,0-6.7-0.52-9.26-1.03l-6.18,28.65c5.66,1.29,13.45,2.07,21.52,2.07c22.67,0,34.99-10.69,45.95-38.53l43.26-94.47H876.8z"/>
</svg>