<svg xmlns="http://www.w3.org/2000/svg" viewBox="0 0 1000 296" width="100" height="32">
  <path fill="#253B80" d="M86.77,294.93l6.07-38.62H73.77c-3.39,0-6.26-2.48-6.79-5.82L46.8,93.71c-0.39-2.48,1.55-4.72,4.08-4.72h59.73c20.37,0,34.54,4.14,42.28,12.37c3.68,3.82,6.02,7.82,7.18,12.13c1.21,4.56,1.26,10.01,0.15,16.7l-0.05,0.39v3.53l2.82,1.6c2.38,1.31,4.27,2.82,5.77,4.56c2.43,2.82,4.03,6.36,4.76,10.54c0.78,4.27,0.78,9.32,0,15.15c-0.92,6.89-2.67,12.86-5.14,17.72c-2.18,4.37-5.04,8.06-8.49,10.98c-3.24,2.77-7.18,4.95-11.74,6.5c-4.47,1.5-9.71,2.62-15.54,3.29c-3.05,0.34-6.5,0.53-10.3,0.53h-9.76c-3.53,0-6.89,1.26-9.56,3.58c-2.67,2.38-4.42,5.53-4.95,9.03l-0.39,2.04l-6.02,38.13l-0.24,1.31c-0.1,0.63-0.34,0.97-0.68,1.26c-0.34,0.29-0.78,0.44-1.31,0.44H86.77z"/>
  <path fill="#179BD7" d="M367.9,88.99h-54.64c-3.39,0-6.26,2.48-6.79,5.82l-20.18,127.89c-0.34,2.04,1.26,3.87,3.34,3.87h28.04c1.94,0,3.58-1.41,3.87-3.34l5.72-36.29c0.53-3.34,3.39-5.82,6.79-5.82h17.31c32.55,0,51.35-15.74,56.29-46.99c2.23-13.65,0.1-24.39-6.36-31.87C394.58,93.7,383.3,88.99,367.9,88.99z M375.18,135.3c-2.72,17.67-16.36,17.67-29.54,17.67h-7.52l5.24-33.28c0.34-1.94,2.04-3.39,3.97-3.39h3.44c8.98,0,17.48,0,21.85,5.14C375.71,124.9,376.2,129.24,375.18,135.3z"/>
  <path fill="#253B80" d="M559.59,135.01h-28.09c-1.94,0-3.58,1.41-3.97,3.34l-0.97,6.21l-1.55-2.23c-4.81-6.99-15.54-9.32-26.24-9.32c-24.58,0-45.58,18.64-49.65,44.75c-2.13,13.02,0.92,25.5,8.25,34.15c6.79,7.96,16.46,11.25,28.04,11.25c19.84,0,30.85-12.76,30.85-12.76l-0.97,6.21c-0.39,2.04,1.26,3.87,3.34,3.87h25.3c2.77,0,5.14-2.04,5.58-4.76l10.54-66.62C560.32,136.85,559.59,135.01,559.59,135.01z M520.15,178.8c-2.13,12.71-12.23,21.22-25.11,21.22c-6.45,0-11.59-2.08-14.9-6.02c-3.29-3.92-4.56-9.51-3.48-15.74c2.04-12.81,12.28-21.75,24.92-21.75c6.31,0,11.4,2.08,14.8,6.07C519.82,166.67,521.18,172.3,520.15,178.8z"/>
  <path fill="#179BD7" d="M721.78,135.01h-28.14c-2.13,0-4.13,1.07-5.34,2.82l-30.75,45.34l-13.07-43.69c-0.82-2.72-3.34-4.56-6.21-4.56h-27.65c-2.18,0-3.68,2.13-2.97,4.17l24.63,72.2l-23.17,32.69c-1.8,2.57,0.05,6.07,3.24,6.07h28.09c2.13,0,4.08-1.02,5.29-2.72l74.34-107.28C726.82,138.5,724.98,135.01,721.78,135.01z"/>
  <path fill="#253B80" d="M779.98,88.99h-54.64c-3.39,0-6.26,2.48-6.79,5.82l-20.18,127.89c-0.34,2.04,1.26,3.87,3.34,3.87h27.7c2.77,0,5.14-2.04,5.58-4.76l5.43-34.49c0.53-3.34,3.39-5.82,6.79-5.82h17.31c32.55,0,51.35-15.74,56.29-46.99c2.23-13.65,0.1-24.39-6.36-31.87C806.66,93.7,795.38,88.99,779.98,88.99z M787.26,135.3c-2.72,17.67-16.36,17.67-29.54,17.67h-7.52l5.24-33.28c0.34-1.94,2.04-3.39,3.97-3.39h3.44c8.98,0,17.48,0,21.85,5.14C787.79,124.9,788.28,129.24,787.26,135.3z"/>
  <path fill="#179BD7" d="M971.67,135.01h-28.09c-1.94,0-3.58,1.41-3.97,3.34l-0.97,6.21l-1.55-2.23c-4.81-6.99-15.54-9.32-26.24-9.32c-24.58,0-45.58,18.64-49.65,44.75c-2.13,13.02,0.92,25.5,8.25,34.15c6.79,7.96,16.46,11.25,28.04,11.25c19.84,0,30.85-12.76,30.85-12.76l-0.97,6.21c-0.39,2.04,1.26,3.87,3.34,3.87h25.3c2.77,0,5.14-2.04,5.58-4.76l10.54-66.62C972.4,136.85,971.67,135.01,971.67,135.01z M932.23,178.8c-2.13,12.71-12.23,21.22-25.11,21.22c-6.45,0-11.59-2.08-14.9-6.02c-3.29-3.92-4.56-9.51-3.48-15.74c2.04-12.81,12.28-21.75,24.92-21.75c6.31,0,11.4,2.08,14.8,6.07C931.9,166.67,933.26,172.3,932.23,178.8z"/>
  <path fill="#253B80" d="M160.43,135.01h-28.09c-1.94,0-3.58,1.41-3.97,3.34l-0.97,6.21l-1.55-2.23c-4.81-6.99-15.54-9.32-26.24-9.32c-24.58,0-45.58,18.64-49.65,44.75c-2.13,13.02,0.92,25.5,8.25,34.15c6.79,7.96,16.46,11.25,28.04,11.25c19.84,0,30.85-12.76,30.85-12.76l-0.97,6.21c-0.39,2.04,1.26,3.87,3.34,3.87h25.3c2.77,0,5.14-2.04,5.58-4.76l10.54-66.62C161.16,136.85,160.43,135.01,160.43,135.01z M120.99,178.8c-2.13,12.71-12.23,21.22-25.11,21.22c-6.45,0-11.59-2.08-14.9-6.02c-3.29-3.92-4.56-9.51-3.48-15.74c2.04-12.81,12.28-21.75,24.92-21.75c6.31,0,11.4,2.08,14.8,6.07C120.66,166.67,122.02,172.3,120.99,178.8z"/>
</svg>