<svg xmlns="http://www.w3.org/2000/svg" viewBox="0 0 1000 324" width="100" height="32">
  <path fill="#00579F" d="M651.19,0.54H348.81c-166.21,0-301,134.79-301,301s134.79,301,301,301h302.38c166.21,0,301-134.79,301-301S817.4,0.54,651.19,0.54z"/>
  <path fill="#FFFFFF" d="M374.41,142.88l-82.15,191.72h-54.36L195.75,174.6c-2.54-10.05-4.73-13.7-12.44-17.9c-12.58-6.8-33.37-13.12-51.7-17.07l1.24-13.7h89.1c11.35,0,21.55,7.55,24.14,20.67l22.04,117.07l54.36-137.74H374.41z M656.1,244.14c0.14-53.7-74.19-56.7-73.69-80.7c0.14-7.3,7.11-15.05,22.3-17.05c7.54-0.95,28.34-1.7,51.95,8.85l9.25-43.2c-12.68-4.6-29-9-49.26-9c-52.05,0-88.7,27.65-89,67.25c-0.45,29.3,26.15,45.65,46.1,55.4c20.55,10,27.45,16.4,27.35,25.35c-0.15,13.7-16.4,19.75-31.55,20c-26.45,0.4-41.8-7.15-54.05-12.85l-9.55,44.6c12.3,5.65,35.05,10.55,58.6,10.8C619.3,313.59,656,286.19,656.1,244.14 M784.4,334.59h47.55l-41.45-191.72h-43.85c-9.85,0-18.15,5.7-21.85,14.55l-77.1,177.17h54.05l10.7-29.6h65.85L784.4,334.59z M736.9,262.99l27.05-74.5l15.6,74.5H736.9z M528.75,142.88l-42.7,191.72h-51.5l42.7-191.72H528.75z"/>
</svg>